<svg height="480pt" viewBox="0 -40 480 480" width="480pt" xmlns="http://www.w3.org/2000/svg"><path d="m24 56h432c4.417969 0 8 3.582031 8 8v328c0 4.417969-3.582031 8-8 8h-432c-4.417969 0-8-3.582031-8-8v-328c0-4.417969 3.582031-8 8-8zm0 0" fill="#3498db"/><path d="m8 16h464c4.417969 0 8 3.582031 8 8v40c0 4.417969-3.582031 8-8 8h-464c-4.417969 0-8-3.582031-8-8v-40c0-4.417969 3.582031-8 8-8zm0 0" fill="#2980b9"/><path d="m96 48c-4.417969 0-8-3.582031-8-8v-32c0-4.417969 3.582031-8 8-8s8 3.582031 8 8v32c0 4.417969-3.582031 8-8 8zm0 0" fill="#333"/><path d="m192 48c-4.417969 0-8-3.582031-8-8v-32c0-4.417969 3.582031-8 8-8s8 3.582031 8 8v32c0 4.417969-3.582031 8-8 8zm0 0" fill="#333"/><path d="m288 48c-4.417969 0-8-3.582031-8-8v-32c0-4.417969 3.582031-8 8-8s8 3.582031 8 8v32c0 4.417969-3.582031 8-8 8zm0 0" fill="#333"/><path d="m384 48c-4.417969 0-8-3.582031-8-8v-32c0-4.417969 3.582031-8 8-8s8 3.582031 8 8v32c0 4.417969-3.582031 8-8 8zm0 0" fill="#333"/><g fill="#003d5c"><path d="m144 104h32c4.417969 0 8 3.582031 8 8v32c0 4.417969-3.582031 8-8 8h-32c-4.417969 0-8-3.582031-8-8v-32c0-4.417969 3.582031-8 8-8zm0 0"/><path d="m64 104h32c4.417969 0 8 3.582031 8 8v32c0 4.417969-3.582031 8-8 8h-32c-4.417969 0-8-3.582031-8-8v-32c0-4.417969 3.582031-8 8-8zm0 0"/><path d="m224 104h32c4.417969 0 8 3.582031 8 8v32c0 4.417969-3.582031 8-8 8h-32c-4.417969 0-8-3.582031-8-8v-32c0-4.417969 3.582031-8 8-8zm0 0"/><path d="m384 104h32c4.417969 0 8 3.582031 8 8v32c0 4.417969-3.582031 8-8 8h-32c-4.417969 0-8-3.582031-8-8v-32c0-4.417969 3.582031-8 8-8zm0 0"/><path d="m304 104h32c4.417969 0 8 3.582031 8 8v32c0 4.417969-3.582031 8-8 8h-32c-4.417969 0-8-3.582031-8-8v-32c0-4.417969 3.582031-8 8-8zm0 0"/><path d="m144 176h32c4.417969 0 8 3.582031 8 8v32c0 4.417969-3.582031 8-8 8h-32c-4.417969 0-8-3.582031-8-8v-32c0-4.417969 3.582031-8 8-8zm0 0"/><path d="m64 176h32c4.417969 0 8 3.582031 8 8v32c0 4.417969-3.582031 8-8 8h-32c-4.417969 0-8-3.582031-8-8v-32c0-4.417969 3.582031-8 8-8zm0 0"/><path d="m144 248h32c4.417969 0 8 3.582031 8 8v32c0 4.417969-3.582031 8-8 8h-32c-4.417969 0-8-3.582031-8-8v-32c0-4.417969 3.582031-8 8-8zm0 0"/><path d="m64 248h32c4.417969 0 8 3.582031 8 8v32c0 4.417969-3.582031 8-8 8h-32c-4.417969 0-8-3.582031-8-8v-32c0-4.417969 3.582031-8 8-8zm0 0"/><path d="m144 320h32c4.417969 0 8 3.582031 8 8v32c0 4.417969-3.582031 8-8 8h-32c-4.417969 0-8-3.582031-8-8v-32c0-4.417969 3.582031-8 8-8zm0 0"/><path d="m64 320h32c4.417969 0 8 3.582031 8 8v32c0 4.417969-3.582031 8-8 8h-32c-4.417969 0-8-3.582031-8-8v-32c0-4.417969 3.582031-8 8-8zm0 0"/></g><path d="m320 176c-53.019531 0-96 42.980469-96 96s42.980469 96 96 96 96-42.980469 96-96c-.058594-52.996094-43.003906-95.941406-96-96zm73.960938 65.601562-40.359376 13.4375-25.601562-20.277343v-42.355469c29.367188 3.003906 54.707031 21.902344 65.960938 49.195312zm-81.960938-49.195312v42.355469l-25.742188 20.4375-40.914062-11.6875c10.796875-28.246094 36.574219-48.011719 66.65625-51.105469zm-72 79.59375c.027344-4.375.414062-8.742188 1.160156-13.054688l41.238282 11.78125 12.082031 24.160157-29.328125 35.203125c-16.042969-15.0625-25.148438-36.085938-25.152344-58.089844zm37.847656 67.871094 29.792969-35.757813 24.625-.113281 29.878906 35.855469c-25.773437 16.171875-58.523437 16.171875-84.296875 0zm96.984375-9.773438-29.335937-35.203125 12.183594-24.359375 40.847656-13.597656c5.246094 26.84375-3.707032 54.5-23.695313 73.175781zm0 0" fill="#ffcc5c"/></svg>