<svg width="500" height="500" xmlns="http://www.w3.org/2000/svg">

 <g>
  <title>Layer 1</title>
  <g id="freepik--background-simple--inject-58">
   <path id="svg_1" fill="#5B1CE3" d="m377.79,65.57a111,111 0 0 0 -44.33,-25.11c-36.63,-10.9 -75.85,-10.14 -113.46,-6.08c-120.89,13.02 -110,102.05 -126.68,132.44s-100.6,55.73 -81.78,166.47s146.19,133.89 262,136.06s192.51,-47.76 215,-124.48c12.29,-42 0.3,-83.35 -18.45,-121.33c-7.72,-15.65 -17.22,-30.78 -23.56,-47.06c-16.28,-41.64 -35.2,-80.31 -68.74,-110.91z"/>
   <path id="svg_2" fill="#fff" opacity="0.7" d="m377.79,65.57a111,111 0 0 0 -44.33,-25.11c-36.63,-10.9 -75.85,-10.14 -113.46,-6.08c-120.89,13.02 -110,102.05 -126.68,132.44s-100.6,55.73 -81.78,166.47s146.19,133.89 262,136.06s192.51,-47.76 215,-124.48c12.29,-42 0.3,-83.35 -18.45,-121.33c-7.72,-15.65 -17.22,-30.78 -23.56,-47.06c-16.28,-41.64 -35.2,-80.31 -68.74,-110.91z"/>
  </g>
  <g id="freepik--Shadow--inject-58">
   <polygon id="svg_3" opacity="0.18" points="119.42 239.11 61.94 460.91 451.46 460.91 391.33 239.11 119.42 239.11"/>
  </g>
  <g id="freepik--Board--inject-58">
   <path id="svg_4" fill="#263238" d="m188.52,69.43l133.63,0a10.36,10.36 0 0 1 10.36,10.36l0,60.21a0,0 0 0 1 0,0l-154.35,0a0,0 0 0 1 0,0l0,-60.21a10.36,10.36 0 0 1 10.36,-10.36z"/>
   <path id="svg_5" fill="#263238" d="m332.51,140.51l-154.35,0a0.5,0.5 0 0 1 -0.5,-0.5l0,-60.22a10.88,10.88 0 0 1 10.86,-10.86l133.63,0a10.88,10.88 0 0 1 10.85,10.86l0,60.21a0.5,0.5 0 0 1 -0.49,0.51zm-153.85,-1l153.34,0l0,-59.72a9.87,9.87 0 0 0 -9.86,-9.86l-133.62,0a9.87,9.87 0 0 0 -9.86,9.86l0,59.72z"/>
  </g>
  <g id="freepik--Field--inject-58">
   <polygon id="svg_6" fill="#5B1CE3" points="114.3405430316925,135.72999572753906 29.91054081916809,419.8299865722656 481.85053753852844,419.8299865722656 397.4105350971222,135.72999572753906 114.3405430316925,135.72999572753906 "/>
   <path id="svg_7" fill="#263238" d="m481.85054,420.33l-451.94,0a0.48,0.48 0 0 1 -0.4,-0.2a0.46,0.46 0 0 1 -0.08,-0.44l84.43,-284.1a0.5,0.5 0 0 1 0.48,-0.36l283.07,0a0.49,0.49 0 0 1 0.48,0.36l84.44,284.1a0.53,0.53 0 0 1 -0.08,0.44a0.49,0.49 0 0 1 -0.4,0.2zm-451.31,-1l450.6,0l-84.1,-283.1l-282.33,0l-84.17,283.1z"/>
   <path id="svg_8" fill="#fff" d="m391.07054,135.73l4.37,15.37l-92.13,0a28.65,28.65 0 0 0 -7,-15.37l-1.54,0a28,28 0 0 1 7.16,15.37l-92.1,0a27.89,27.89 0 0 1 7.17,-15.37l-1.55,0a28.59,28.59 0 0 0 -7,15.37l-92.14,0l4.36,-15.37l-1.35,0l-79.14,276l431.36,0l-79.14,-276l-1.33,0zm-89.06,16.38c1.38,18.94 -19.11,35.36 -46.13,35.36s-47.52,-16.42 -46.13,-35.36l92.26,0zm10.58,257.28l-113.43,0l4.69,-62l104.05,0l4.69,62zm79.48,0l-77.35,0l-5,-63.93l-107.67,0l-5,63.93l-77.37,0l23.68,-130.39l225,0l23.71,130.39zm-187.6,-132c11.15,-17.1 30.54,-27.21 51.41,-27.21s40.26,10.11 51.41,27.21l-102.82,0zm264.29,132l-74.56,0l-24.35,-132l-60.59,0c-11.44,-18 -31.67,-28.66 -53.38,-28.66s-41.94,10.66 -53.34,28.67l-60.6,0l-24.4,131.99l-74.56,0l73,-257.28l92.33,0c-1.49,19.54 19.62,36.52 47.53,36.52s49,-17 47.52,-36.52l92.32,0l73.08,257.28z"/>
   <rect id="svg_9" fill="#263238" height="13.7" width="451.9" y="419.84" x="29.91054"/>
   <path id="svg_10" fill="#263238" d="m481.81054,434l-451.9,0a0.5,0.5 0 0 1 -0.5,-0.5l0,-13.67a0.5,0.5 0 0 1 0.5,-0.5l451.9,0a0.51,0.51 0 0 1 0.5,0.5l0,13.71a0.5,0.5 0 0 1 -0.5,0.46zm-451.4,-1l450.9,0l0,-12.67l-450.9,0l0,12.67z"/>
  </g>
  <g id="freepik--t-shirt-11--inject-58">
   <polygon id="svg_121" fill="#fff" points="430.2 300.04 418.61 290.53 414.01 289.83 403.5 289.91 398.38 290.53 386.8 300.04 390.43 305.22 397.52 303.32 396.14 331.57 420.86 331.57 419.48 303.32 426.57 305.22 430.2 300.04"/>
   <path id="svg_122" fill="#263238" d="m420.86,332.07l-24.72,0a0.48,0.48 0 0 1 -0.36,-0.16a0.46,0.46 0 0 1 -0.14,-0.37l1.36,-27.54l-6.43,1.73a0.52,0.52 0 0 1 -0.54,-0.2l-3.63,-5.19a0.5,0.5 0 0 1 0.09,-0.67l11.59,-9.51a0.47,0.47 0 0 1 0.26,-0.11l5.11,-0.62l10.56,-0.08l4.69,0.7a0.44,0.44 0 0 1 0.24,0.11l11.58,9.51a0.49,0.49 0 0 1 0.1,0.67l-3.62,5.17a0.5,0.5 0 0 1 -0.53,0.2l-6.47,-1.71l1.35,27.56a0.46,0.46 0 0 1 -0.14,0.37a0.48,0.48 0 0 1 -0.35,0.14zm-24.2,-1l23.67,0l-1.33,-27.73a0.51,0.51 0 0 1 0.18,-0.41a0.52,0.52 0 0 1 0.45,-0.09l6.75,1.81l3.16,-4.52l-11.14,-9.13l-4.47,-0.67l-10.42,0.08l-4.92,0.59l-11.11,9.13l3.16,4.52l6.75,-1.81a0.5,0.5 0 0 1 0.63,0.5l-1.36,27.73z"/>
   <path id="svg_123" fill="#263238" d="m403.5,289.91l-0.67,0.1a5.69,5.69 0 0 0 11.35,-0.14l-0.17,0l-10.51,0.04z"/>
   <path id="svg_124" fill="#263238" d="m408.5,295.72a6.23,6.23 0 0 1 -6.17,-5.67a0.49,0.49 0 0 1 0.42,-0.53l0.68,-0.11l0.07,0l10.5,-0.08l0.27,0.05a0.5,0.5 0 0 1 0.41,0.52a6.2,6.2 0 0 1 -6.18,5.82zm-5.11,-5.29a5.19,5.19 0 0 0 10.24,-0.1l-10.24,0.1z"/>
   <path id="svg_125" fill="#fff" d="m403.78,289.91a4.77,4.77 0 0 0 9.45,-0.07l-9.45,0.07z"/>
   <path id="svg_126" fill="#263238" d="m408.5,294.52a5.43,5.43 0 0 1 -5.21,-4.52a0.49,0.49 0 0 1 0.49,-0.59l9.44,-0.07l0,0a0.51,0.51 0 0 1 0.38,0.18a0.47,0.47 0 0 1 0.11,0.41a5.42,5.42 0 0 1 -5.21,4.59zm-4.08,-4.12a4.22,4.22 0 0 0 8.17,-0.06l-8.17,0.06z"/>
   <polygon id="svg_127" fill="#263238" points="390.43 305.22 392.34 304.71 388.31 298.8 386.8 300.04 390.43 305.22"/>
   <path id="svg_128" fill="#263238" d="m390.43,305.72a0.52,0.52 0 0 1 -0.41,-0.21l-3.63,-5.19a0.5,0.5 0 0 1 0.09,-0.67l1.51,-1.24a0.58,0.58 0 0 1 0.39,-0.11a0.53,0.53 0 0 1 0.34,0.22l4,5.91a0.49,0.49 0 0 1 -0.28,0.76l-1.91,0.52l-0.1,0.01zm-2.95,-5.59l3.16,4.52l0.89,-0.24l-3.33,-4.88l-0.72,0.6z"/>
   <polygon id="svg_129" fill="#263238" points="426.57 305.22 424.66 304.71 428.69 298.8 430.2 300.04 426.57 305.22"/>
   <path id="svg_130" fill="#263238" d="m426.57,305.72l-0.13,0l-1.91,-0.52a0.5,0.5 0 0 1 -0.29,-0.76l4,-5.91a0.53,0.53 0 0 1 0.34,-0.22a0.58,0.58 0 0 1 0.39,0.11l1.5,1.24a0.49,0.49 0 0 1 0.1,0.67l-3.57,5.18a0.49,0.49 0 0 1 -0.43,0.21zm-1.1,-1.31l0.89,0.24l3.16,-4.52l-0.72,-0.6l-3.33,4.88z"/>
   <path id="svg_131" fill="#263238" d="m408.52,318.26a4,4 0 0 1 -2.28,-0.53a2.66,2.66 0 0 1 -1,-1.5a8.33,8.33 0 0 1 -0.27,-2.24l2.73,0a7.36,7.36 0 0 0 0.08,1.27a1.27,1.27 0 0 0 0.31,0.71a0.9,0.9 0 0 0 0.66,0.19a0.68,0.68 0 0 0 0.62,-0.35a2.35,2.35 0 0 0 0.23,-1c0,-0.42 0,-0.93 0,-1.53a8.62,8.62 0 0 0 -0.07,-1.2a1.78,1.78 0 0 0 -0.31,-0.84a0.79,0.79 0 0 0 -0.68,-0.32a0.87,0.87 0 0 0 -0.7,0.31a2,2 0 0 0 -0.39,0.95l-2.45,0l0.26,-7.92l6.4,0l0,2.38l-4.13,0l-0.16,2.83a1.4,1.4 0 0 1 0.65,-0.42a4,4 0 0 1 1,-0.23a2.52,2.52 0 0 1 1.77,0.38a3,3 0 0 1 1.08,1.52a7.51,7.51 0 0 1 0.37,2.49a14.07,14.07 0 0 1 -0.14,2a4.45,4.45 0 0 1 -0.53,1.59a2.66,2.66 0 0 1 -1.13,1a4.37,4.37 0 0 1 -1.92,0.46z"/>
   <ellipse id="svg_132" opacity="0.25" ry="2.86" rx="23.2" cy="356.08" cx="407.06"/>
  </g>
  <g id="freepik--t-shirt-10--inject-58">
   <polygon id="svg_133" fill="#fff" points="347.31 300.04 335.73 290.53 331.13 289.83 320.62 289.91 315.5 290.53 303.92 300.04 307.55 305.22 314.64 303.32 313.25 331.57 337.98 331.57 336.6 303.32 343.68 305.22 347.31 300.04"/>
   <path id="svg_134" fill="#263238" d="m338,332.07l-24.75,0a0.52,0.52 0 0 1 -0.36,-0.16a0.48,0.48 0 0 1 -0.13,-0.37l1.34,-27.54l-6.42,1.73a0.52,0.52 0 0 1 -0.54,-0.2l-3.63,-5.19a0.5,0.5 0 0 1 0.09,-0.67l11.58,-9.51a0.54,0.54 0 0 1 0.26,-0.11l5.12,-0.62l10.56,-0.08l4.69,0.7a0.48,0.48 0 0 1 0.24,0.11l11.58,9.51a0.5,0.5 0 0 1 0.09,0.67l-3.63,5.19a0.51,0.51 0 0 1 -0.54,0.2l-6.42,-1.73l1.35,27.56a0.53,0.53 0 0 1 -0.14,0.37a0.5,0.5 0 0 1 -0.34,0.14zm-24.2,-1l23.67,0l-1.35,-27.73a0.49,0.49 0 0 1 0.62,-0.5l6.75,1.81l3.17,-4.52l-11.14,-9.13l-4.47,-0.67l-10.43,0.08l-4.91,0.59l-11.12,9.13l3.17,4.52l6.75,-1.81a0.5,0.5 0 0 1 0.44,0.09a0.52,0.52 0 0 1 0.19,0.41l-1.34,27.73z"/>
   <path id="svg_135" fill="#263238" d="m320.62,289.91l-0.68,0.1a5.69,5.69 0 0 0 11.35,-0.14l-0.17,0l-10.5,0.04z"/>
   <path id="svg_136" fill="#263238" d="m325.62,295.72a6.22,6.22 0 0 1 -6.17,-5.67a0.48,0.48 0 0 1 0.42,-0.53l0.67,-0.11l0.08,0l10.5,-0.08l0.27,0.05a0.49,0.49 0 0 1 0.4,0.52a6.18,6.18 0 0 1 -6.17,5.82zm-5.12,-5.29a5.24,5.24 0 0 0 5.12,4.29a5.19,5.19 0 0 0 5.12,-4.39l-10.24,0.1z"/>
   <path id="svg_137" fill="#fff" d="m320.9,289.91a4.76,4.76 0 0 0 9.44,-0.07l-9.44,0.07z"/>
   <path id="svg_138" fill="#263238" d="m325.62,294.52a5.42,5.42 0 0 1 -5.21,-4.52a0.49,0.49 0 0 1 0.48,-0.59l9.45,-0.07l0,0a0.5,0.5 0 0 1 0.5,0.59a5.42,5.42 0 0 1 -5.22,4.59zm-4.08,-4.12a4.22,4.22 0 0 0 8.17,-0.06l-8.17,0.06z"/>
   <polygon id="svg_139" fill="#263238" points="307.55 305.22 309.46 304.71 305.42 298.8 303.92 300.04 307.55 305.22"/>
   <path id="svg_140" fill="#263238" d="m307.55,305.72a0.52,0.52 0 0 1 -0.41,-0.21l-3.63,-5.19a0.5,0.5 0 0 1 0.09,-0.67l1.51,-1.24a0.56,0.56 0 0 1 0.39,-0.11a0.55,0.55 0 0 1 0.34,0.22l4,5.91a0.51,0.51 0 0 1 0.06,0.45a0.5,0.5 0 0 1 -0.34,0.31l-1.91,0.52l-0.1,0.01zm-3,-5.59l3.17,4.52l0.89,-0.24l-3.33,-4.88l-0.73,0.6z"/>
   <polygon id="svg_141" fill="#263238" points="343.68 305.22 341.77 304.71 345.81 298.8 347.31 300.04 343.68 305.22"/>
   <path id="svg_142" fill="#263238" d="m343.68,305.72l-0.13,0l-1.91,-0.52a0.47,0.47 0 0 1 -0.33,-0.31a0.48,0.48 0 0 1 0.05,-0.45l4,-5.91a0.5,0.5 0 0 1 0.34,-0.22a0.6,0.6 0 0 1 0.39,0.11l1.5,1.24a0.5,0.5 0 0 1 0.09,0.67l-3.63,5.19a0.51,0.51 0 0 1 -0.37,0.2zm-1.1,-1.31l0.89,0.24l3.17,-4.52l-0.73,-0.6l-3.33,4.88z"/>
   <path id="svg_143" fill="#263238" d="m326.4,318l0,-3.08l-4.22,0l0,-2.09l3.58,-8.56l3.24,0l0,8.54l1.27,0l0,2.11l-1.27,0l0,3.08l-2.6,0zm-2.07,-5.19l2.07,0l0,-5.71l-2.07,5.71z"/>
   <ellipse id="svg_144" opacity="0.25" ry="2.86" rx="23.2" cy="356.08" cx="326.63"/>
  </g>
  <g id="freepik--t-shirt-9--inject-58">
   <polygon id="svg_145" fill="#fff" points="277.03 347.31 265.45 337.8 260.85 337.11 250.34 337.18 245.22 337.8 233.64 347.31 237.27 352.5 244.36 350.59 242.98 378.84 267.7 378.84 266.31 350.59 273.4 352.5 277.03 347.31"/>
   <path id="svg_146" fill="#263238" d="m267.7,379.34l-24.7,0a0.51,0.51 0 0 1 -0.37,-0.15a0.5,0.5 0 0 1 -0.13,-0.37l1.35,-27.57l-6.45,1.75a0.52,0.52 0 0 1 -0.54,-0.2l-3.63,-5.18a0.51,0.51 0 0 1 0.09,-0.68l11.59,-9.51a0.47,0.47 0 0 1 0.25,-0.11l5.12,-0.61l10.56,-0.08l4.69,0.7a0.51,0.51 0 0 1 0.24,0.1l11.58,9.51a0.51,0.51 0 0 1 0.09,0.68l-3.63,5.18a0.51,0.51 0 0 1 -0.54,0.2l-6.42,-1.73l1.35,27.57a0.55,0.55 0 0 1 -0.14,0.37a0.49,0.49 0 0 1 -0.36,0.13zm-24.2,-1l23.67,0l-1.35,-27.72a0.48,0.48 0 0 1 0.18,-0.41a0.49,0.49 0 0 1 0.45,-0.1l6.75,1.81l3.16,-4.52l-11.12,-9.13l-4.47,-0.67l-10.43,0.08l-4.91,0.6l-11.11,9.12l3.16,4.52l6.75,-1.81a0.47,0.47 0 0 1 0.44,0.1a0.46,0.46 0 0 1 0.19,0.41l-1.36,27.72z"/>
   <path id="svg_147" fill="#263238" d="m250.34,337.18l-0.67,0.1a5.69,5.69 0 0 0 11.35,-0.14l-0.17,0l-10.51,0.04z"/>
   <path id="svg_148" fill="#263238" d="m255.34,343a6.22,6.22 0 0 1 -6.17,-5.67a0.5,0.5 0 0 1 0.42,-0.54l0.67,-0.1l0.08,0l10.5,-0.07l0.27,0a0.49,0.49 0 0 1 0.4,0.52a6.19,6.19 0 0 1 -6.17,5.86zm-5.12,-5.29a5.19,5.19 0 0 0 10.24,-0.11l-10.24,0.11z"/>
   <path id="svg_149" fill="#fff" d="m250.62,337.18a4.76,4.76 0 0 0 9.45,-0.07l-9.45,0.07z"/>
   <path id="svg_150" fill="#263238" d="m255.34,341.79a5.42,5.42 0 0 1 -5.21,-4.52a0.51,0.51 0 0 1 0.1,-0.41a0.53,0.53 0 0 1 0.38,-0.18l9.45,-0.07l0,0a0.53,0.53 0 0 1 0.38,0.18a0.56,0.56 0 0 1 0.11,0.41a5.42,5.42 0 0 1 -5.21,4.59zm-4.08,-4.12a4.23,4.23 0 0 0 8.17,-0.05l-8.17,0.05z"/>
   <polygon id="svg_151" fill="#263238" points="237.27 352.5 239.18 351.98 235.15 346.07 233.64 347.31 237.27 352.5"/>
   <path id="svg_152" fill="#263238" d="m237.27,353a0.5,0.5 0 0 1 -0.41,-0.22l-3.63,-5.18a0.51,0.51 0 0 1 0.09,-0.68l1.51,-1.23a0.5,0.5 0 0 1 0.39,-0.11a0.54,0.54 0 0 1 0.34,0.21l4,5.91a0.5,0.5 0 0 1 -0.28,0.77l-1.91,0.51l-0.1,0.02zm-3,-5.6l3.16,4.52l0.89,-0.24l-3.32,-4.87l-0.73,0.59z"/>
   <polygon id="svg_153" fill="#263238" points="273.4 352.5 271.5 351.98 275.53 346.07 277.03 347.31 273.4 352.5"/>
   <path id="svg_154" fill="#263238" d="m273.4,353l-0.13,0l-1.9,-0.51a0.5,0.5 0 0 1 -0.34,-0.31a0.5,0.5 0 0 1 0.05,-0.46l4,-5.91a0.51,0.51 0 0 1 0.34,-0.21a0.5,0.5 0 0 1 0.39,0.11l1.5,1.23a0.51,0.51 0 0 1 0.09,0.68l-3.63,5.18a0.49,0.49 0 0 1 -0.37,0.2zm-1.09,-1.32l0.89,0.24l3.16,-4.52l-0.73,-0.59l-3.32,4.87z"/>
   <path id="svg_155" fill="#263238" d="m254.68,362.26l0,-10.93l-0.42,0.21l-0.5,0.21l-0.51,0.21l-0.45,0.2l0,-2.1l0.53,-0.28l0.73,-0.4a7.49,7.49 0 0 0 0.73,-0.45a3.65,3.65 0 0 0 0.5,-0.39l2.22,0l0,13.72l-2.83,0z"/>
   <ellipse id="svg_156" opacity="0.25" ry="2.86" rx="23.2" cy="403.35" cx="256.03"/>
  </g>
  <g id="freepik--t-shirt-8--inject-58">
   <polygon id="svg_157" fill="#fff" points="209.51 300.04 197.93 290.53 193.32 289.83 182.82 289.91 177.7 290.53 166.12 300.04 169.75 305.22 176.84 303.32 175.45 331.57 200.18 331.57 198.79 303.32 205.88 305.22 209.51 300.04"/>
   <path id="svg_158" fill="#263238" d="m200.18,332.07l-24.73,0a0.52,0.52 0 0 1 -0.36,-0.16a0.53,0.53 0 0 1 -0.14,-0.37l1.35,-27.54l-6.42,1.73a0.51,0.51 0 0 1 -0.54,-0.2l-3.63,-5.19a0.5,0.5 0 0 1 0.09,-0.67l11.58,-9.51a0.54,0.54 0 0 1 0.26,-0.11l5.12,-0.62l10.56,-0.08l4.68,0.7a0.47,0.47 0 0 1 0.25,0.11l11.58,9.51a0.5,0.5 0 0 1 0.09,0.67l-3.63,5.19a0.51,0.51 0 0 1 -0.54,0.2l-6.42,-1.73l1.35,27.56a0.53,0.53 0 0 1 -0.14,0.37a0.52,0.52 0 0 1 -0.36,0.14zm-24.2,-1l23.67,0l-1.36,-27.73a0.52,0.52 0 0 1 0.19,-0.41a0.5,0.5 0 0 1 0.44,-0.09l6.75,1.81l3.17,-4.52l-11.12,-9.13l-4.47,-0.67l-10.43,0.08l-4.92,0.59l-11.11,9.13l3.17,4.52l6.75,-1.81a0.5,0.5 0 0 1 0.44,0.09a0.55,0.55 0 0 1 0.19,0.41l-1.36,27.73z"/>
   <path id="svg_159" fill="#263238" d="m182.82,289.91l-0.68,0.1a5.69,5.69 0 0 0 11.35,-0.14l-0.17,0l-10.5,0.04z"/>
   <path id="svg_160" fill="#263238" d="m187.81,295.72a6.21,6.21 0 0 1 -6.16,-5.67a0.48,0.48 0 0 1 0.42,-0.53l0.67,-0.11l0.07,0l10.51,-0.08l0.27,0.05a0.5,0.5 0 0 1 0.4,0.52a6.19,6.19 0 0 1 -6.18,5.82zm-5.11,-5.29a5.19,5.19 0 0 0 10.24,-0.1l-10.24,0.1z"/>
   <path id="svg_161" fill="#fff" d="m183.1,289.91a4.76,4.76 0 0 0 9.44,-0.07l-9.44,0.07z"/>
   <path id="svg_162" fill="#263238" d="m187.82,294.52a5.44,5.44 0 0 1 -5.22,-4.52a0.54,0.54 0 0 1 0.11,-0.41a0.46,0.46 0 0 1 0.38,-0.18l9.45,-0.07l0,0a0.5,0.5 0 0 1 0.5,0.59a5.42,5.42 0 0 1 -5.22,4.59zm-4.08,-4.12a4.22,4.22 0 0 0 8.17,-0.06l-8.17,0.06z"/>
   <polygon id="svg_163" fill="#263238" points="169.75 305.22 171.66 304.71 167.62 298.8 166.12 300.04 169.75 305.22"/>
   <path id="svg_164" fill="#263238" d="m169.75,305.72a0.51,0.51 0 0 1 -0.41,-0.21l-3.63,-5.19a0.5,0.5 0 0 1 0.09,-0.67l1.51,-1.24a0.51,0.51 0 0 1 0.38,-0.11a0.55,0.55 0 0 1 0.35,0.22l4,5.91a0.51,0.51 0 0 1 0.06,0.45a0.5,0.5 0 0 1 -0.34,0.31l-1.91,0.52l-0.1,0.01zm-3,-5.59l3.17,4.52l0.89,-0.24l-3.33,-4.88l-0.73,0.6z"/>
   <polygon id="svg_165" fill="#263238" points="205.88 305.22 203.97 304.71 208.01 298.8 209.51 300.04 205.88 305.22"/>
   <path id="svg_166" fill="#263238" d="m205.88,305.72l-0.13,0l-1.91,-0.52a0.5,0.5 0 0 1 -0.34,-0.31a0.51,0.51 0 0 1 0.06,-0.45l4,-5.91a0.55,0.55 0 0 1 0.35,-0.22a0.55,0.55 0 0 1 0.38,0.11l1.51,1.24a0.5,0.5 0 0 1 0.09,0.67l-3.63,5.19a0.51,0.51 0 0 1 -0.38,0.2zm-1.1,-1.31l0.89,0.24l3.17,-4.52l-0.73,-0.6l-3.33,4.88z"/>
   <path id="svg_167" fill="#263238" d="m188.56,318.26a4.08,4.08 0 0 1 -2.26,-0.54a2.94,2.94 0 0 1 -1.17,-1.51a6.74,6.74 0 0 1 -0.34,-2.25l0,-0.49l2.83,0l0,0.53a5.56,5.56 0 0 0 0.08,1.1a1.16,1.16 0 0 0 0.3,0.62a0.92,0.92 0 0 0 0.62,0.2a0.75,0.75 0 0 0 0.58,-0.21a1.08,1.08 0 0 0 0.26,-0.61a5.81,5.81 0 0 0 0.07,-1a3.41,3.41 0 0 0 -0.28,-1.55a1.22,1.22 0 0 0 -1.16,-0.55l-0.53,0l0,-2l0.44,0a1.32,1.32 0 0 0 1.21,-0.49a3,3 0 0 0 0.3,-1.52a2.82,2.82 0 0 0 -0.21,-1.22a0.81,0.81 0 0 0 -0.79,-0.43a0.72,0.72 0 0 0 -0.74,0.48a3.48,3.48 0 0 0 -0.17,1.22l0,0.71l-2.83,0l0,-0.83a4.58,4.58 0 0 1 0.44,-2.09a3,3 0 0 1 1.29,-1.3a4.32,4.32 0 0 1 2,-0.44a4.51,4.51 0 0 1 2,0.42a3,3 0 0 1 1.31,1.25a4.21,4.21 0 0 1 0.46,2a3.92,3.92 0 0 1 -0.49,2a2.09,2.09 0 0 1 -1.19,1a2.28,2.28 0 0 1 0.85,0.54a2.5,2.5 0 0 1 0.61,1a5.19,5.19 0 0 1 0.22,1.62a6.15,6.15 0 0 1 -0.37,2.22a3,3 0 0 1 -1.19,1.51a3.93,3.93 0 0 1 -2.15,0.61z"/>
   <ellipse id="svg_168" opacity="0.25" ry="2.86" rx="23.2" cy="356.08" cx="187.27"/>
  </g>
  <g id="freepik--t-shirt-7--inject-58">
   <polygon id="svg_169" fill="#fff" points="126.63 300.04 115.05 290.53 110.44 289.83 99.94 289.91 94.82 290.53 83.23 300.04 86.86 305.22 93.95 303.32 92.57 331.57 117.29 331.57 115.91 303.32 123 305.22 126.63 300.04"/>
   <path id="svg_170" fill="#263238" d="m117.29,332.07l-24.72,0a0.48,0.48 0 0 1 -0.36,-0.16a0.46,0.46 0 0 1 -0.14,-0.37l1.35,-27.54l-6.42,1.71a0.5,0.5 0 0 1 -0.53,-0.2l-3.63,-5.19a0.5,0.5 0 0 1 0.09,-0.67l11.58,-9.51a0.47,0.47 0 0 1 0.26,-0.11l5.11,-0.62l10.57,-0.08l4.68,0.7a0.44,0.44 0 0 1 0.24,0.11l11.63,9.51a0.5,0.5 0 0 1 0.09,0.67l-3.63,5.19a0.52,0.52 0 0 1 -0.54,0.2l-6.48,-1.71l1.35,27.56a0.48,0.48 0 0 1 -0.13,0.37a0.52,0.52 0 0 1 -0.37,0.14zm-24.19,-1l23.67,0l-1.36,-27.73a0.49,0.49 0 0 1 0.19,-0.41a0.5,0.5 0 0 1 0.44,-0.09l6.75,1.81l3.16,-4.52l-11.11,-9.13l-4.47,-0.67l-10.43,0.08l-4.94,0.59l-11.11,9.13l3.16,4.52l6.75,-1.81a0.52,0.52 0 0 1 0.45,0.09a0.51,0.51 0 0 1 0.18,0.41l-1.33,27.73z"/>
   <path id="svg_171" fill="#263238" d="m99.93,289.91l-0.67,0.1a5.69,5.69 0 0 0 11.35,-0.14l-0.17,0l-10.51,0.04z"/>
   <path id="svg_172" fill="#263238" d="m104.93,295.72a6.23,6.23 0 0 1 -6.17,-5.67a0.5,0.5 0 0 1 0.43,-0.53l0.67,-0.11l0.07,0l10.51,-0.08l0.27,0.05a0.5,0.5 0 0 1 0.4,0.52a6.19,6.19 0 0 1 -6.18,5.82zm-5.11,-5.29a5.19,5.19 0 0 0 10.24,-0.1l-10.24,0.1z"/>
   <path id="svg_173" fill="#fff" d="m100.21,289.91a4.77,4.77 0 0 0 9.45,-0.07l-9.45,0.07z"/>
   <path id="svg_174" fill="#263238" d="m104.93,294.52a5.44,5.44 0 0 1 -5.21,-4.52a0.5,0.5 0 0 1 0.49,-0.59l9.45,-0.07a0.48,0.48 0 0 1 0.38,0.18a0.47,0.47 0 0 1 0.11,0.41a5.42,5.42 0 0 1 -5.22,4.59zm-4.07,-4.12a4.22,4.22 0 0 0 8.16,-0.06l-8.16,0.06z"/>
   <polygon id="svg_175" fill="#263238" points="86.86 305.22 88.77 304.71 84.74 298.8 83.23 300.04 86.86 305.22"/>
   <path id="svg_176" fill="#263238" d="m86.87,305.72a0.49,0.49 0 0 1 -0.41,-0.21l-3.63,-5.19a0.5,0.5 0 0 1 0.09,-0.67l1.5,-1.24a0.54,0.54 0 0 1 0.39,-0.11a0.53,0.53 0 0 1 0.34,0.22l4,5.91a0.48,0.48 0 0 1 0,0.45a0.46,0.46 0 0 1 -0.34,0.31l-1.91,0.52l-0.03,0.01zm-3,-5.59l3.16,4.52l0.89,-0.24l-3.33,-4.88l-0.72,0.6z"/>
   <polygon id="svg_177" fill="#263238" points="123 305.22 121.09 304.71 125.12 298.8 126.63 300.04 123 305.22"/>
   <path id="svg_178" fill="#263238" d="m123,305.72l-0.13,0l-1.91,-0.52a0.49,0.49 0 0 1 -0.28,-0.76l4,-5.91a0.53,0.53 0 0 1 0.34,-0.22a0.6,0.6 0 0 1 0.39,0.11l1.51,1.24a0.5,0.5 0 0 1 0.09,0.67l-3.63,5.19a0.52,0.52 0 0 1 -0.38,0.2zm-1.1,-1.31l0.89,0.24l3.16,-4.52l-0.72,-0.6l-3.33,4.88z"/>
   <path id="svg_179" fill="#263238" d="m100.52,318l0,-2l3.29,-5.05c0.24,-0.37 0.48,-0.73 0.7,-1.08a6.32,6.32 0 0 0 0.54,-1.07a3.12,3.12 0 0 0 0.21,-1.14a1.42,1.42 0 0 0 -0.23,-0.88a0.81,0.81 0 0 0 -0.65,-0.29a1,1 0 0 0 -0.71,0.26a1.38,1.38 0 0 0 -0.35,0.68a4.48,4.48 0 0 0 -0.09,0.94l0,0.68l-2.75,0l0,-0.73a5.67,5.67 0 0 1 0.39,-2.17a3.23,3.23 0 0 1 1.24,-1.51a4,4 0 0 1 2.22,-0.55a3.79,3.79 0 0 1 2.79,0.95a3.64,3.64 0 0 1 0.94,2.67a4.58,4.58 0 0 1 -0.26,1.55a7.47,7.47 0 0 1 -0.7,1.38c-0.29,0.44 -0.59,0.91 -0.92,1.39l-2.51,3.75l4,0l0,2.22l-7.15,0z"/>
   <ellipse id="svg_180" opacity="0.25" ry="2.86" rx="23.2" cy="356.08" cx="104.08"/>
  </g>
  <g id="freepik--t-shirt-6--inject-58">
   <polygon id="svg_181" fill="#fff" points="393.08 227.59 381.5 218.08 376.89 217.39 366.39 217.46 361.27 218.08 349.69 227.59 353.32 232.78 360.41 230.87 359.02 259.12 383.75 259.12 382.36 230.87 389.45 232.78 393.08 227.59"/>
   <path id="svg_182" fill="#263238" d="m383.75,259.62l-24.75,0a0.51,0.51 0 0 1 -0.36,-0.15a0.55,0.55 0 0 1 -0.14,-0.37l1.35,-27.56l-6.42,1.72a0.48,0.48 0 0 1 -0.54,-0.2l-3.63,-5.18a0.51,0.51 0 0 1 0.09,-0.68l11.65,-9.51a0.66,0.66 0 0 1 0.26,-0.11l5.12,-0.61l10.56,-0.08l4.68,0.7a0.55,0.55 0 0 1 0.25,0.1l11.58,9.51a0.51,0.51 0 0 1 0.09,0.68l-3.63,5.18a0.5,0.5 0 0 1 -0.54,0.2l-6.42,-1.72l1.35,27.56a0.55,0.55 0 0 1 -0.14,0.37a0.51,0.51 0 0 1 -0.41,0.15zm-24.2,-1l23.67,0l-1.36,-27.72a0.51,0.51 0 0 1 0.63,-0.51l6.75,1.81l3.17,-4.52l-11.12,-9.13l-4.47,-0.67l-10.43,0.08l-4.92,0.6l-11.11,9.12l3.17,4.52l6.75,-1.81a0.47,0.47 0 0 1 0.44,0.1a0.53,0.53 0 0 1 0.19,0.41l-1.36,27.72z"/>
   <path id="svg_183" fill="#263238" d="m366.39,217.46l-0.68,0.1a5.69,5.69 0 0 0 11.35,-0.14l-0.17,0l-10.5,0.04z"/>
   <path id="svg_184" fill="#263238" d="m371.38,223.28a6.23,6.23 0 0 1 -6.17,-5.67a0.51,0.51 0 0 1 0.43,-0.54l0.67,-0.1l0.07,0l10.51,-0.07l0.27,0a0.49,0.49 0 0 1 0.4,0.52a6.19,6.19 0 0 1 -6.18,5.86zm-5.11,-5.28a5.19,5.19 0 0 0 10.24,-0.11l-10.24,0.11z"/>
   <path id="svg_185" fill="#fff" d="m366.67,217.46a4.76,4.76 0 0 0 9.44,-0.07l-9.44,0.07z"/>
   <path id="svg_186" fill="#263238" d="m371.38,222.08a5.45,5.45 0 0 1 -5.21,-4.52a0.57,0.57 0 0 1 0.11,-0.42a0.49,0.49 0 0 1 0.38,-0.18l9.45,-0.07l0,0a0.53,0.53 0 0 1 0.39,0.18a0.56,0.56 0 0 1 0.11,0.41a5.44,5.44 0 0 1 -5.23,4.6zm-4.07,-4.08a4.22,4.22 0 0 0 8.17,-0.06l-8.17,0.06z"/>
   <polygon id="svg_187" fill="#263238" points="353.32 232.78 355.23 232.26 351.19 226.35 349.69 227.59 353.32 232.78"/>
   <path id="svg_188" fill="#263238" d="m353.32,233.28a0.49,0.49 0 0 1 -0.41,-0.22l-3.63,-5.18a0.51,0.51 0 0 1 0.09,-0.68l1.51,-1.23a0.47,0.47 0 0 1 0.38,-0.11a0.53,0.53 0 0 1 0.35,0.21l4,5.91a0.54,0.54 0 0 1 0.06,0.46a0.52,0.52 0 0 1 -0.34,0.31l-1.91,0.51l-0.1,0.02zm-3,-5.6l3.17,4.52l0.89,-0.24l-3.33,-4.87l-0.73,0.59z"/>
   <polygon id="svg_189" fill="#263238" points="389.45 232.78 387.54 232.26 391.58 226.35 393.08 227.59 389.45 232.78"/>
   <path id="svg_190" fill="#263238" d="m389.45,233.28l-0.13,0l-1.91,-0.51a0.52,0.52 0 0 1 -0.34,-0.31a0.54,0.54 0 0 1 0.06,-0.46l4,-5.91a0.53,0.53 0 0 1 0.35,-0.21a0.47,0.47 0 0 1 0.38,0.11l1.51,1.23a0.51,0.51 0 0 1 0.09,0.68l-3.63,5.18a0.49,0.49 0 0 1 -0.38,0.2zm-1.1,-1.32l0.89,0.24l3.17,-4.52l-0.73,-0.59l-3.33,4.87z"/>
   <path id="svg_191" fill="#263238" d="m371.08,242.72a4,4 0 0 1 -2.22,-0.55a3,3 0 0 1 -1.18,-1.52a6,6 0 0 1 -0.25,-3.22a3.65,3.65 0 0 1 0.29,-0.9a2.67,2.67 0 0 1 0.49,-0.73a2.51,2.51 0 0 1 0.71,-0.52a3.32,3.32 0 0 1 -0.94,-1.12a4.14,4.14 0 0 1 -0.44,-1.88a4.49,4.49 0 0 1 0.38,-2a2.84,2.84 0 0 1 1.2,-1.27a4,4 0 0 1 2,-0.44a4,4 0 0 1 2,0.45a2.85,2.85 0 0 1 1.18,1.27a4.32,4.32 0 0 1 0.35,2a4.13,4.13 0 0 1 -0.41,1.89a3,3 0 0 1 -0.93,1.11a2.66,2.66 0 0 1 0.71,0.52a2.92,2.92 0 0 1 0.49,0.73a3.65,3.65 0 0 1 0.29,0.9a4.62,4.62 0 0 1 0.11,1a5.81,5.81 0 0 1 -0.34,2.23a3.06,3.06 0 0 1 -1.19,1.52a4,4 0 0 1 -2.3,0.53zm0,-2.08a0.69,0.69 0 0 0 0.66,-0.34a2,2 0 0 0 0.26,-0.81c0,-0.31 0.05,-0.59 0.05,-0.85a6.85,6.85 0 0 0 0,-1a1.8,1.8 0 0 0 -0.27,-0.8a0.82,0.82 0 0 0 -1.3,0a1.8,1.8 0 0 0 -0.26,0.79a8.52,8.52 0 0 0 -0.06,1a6.67,6.67 0 0 0 0.05,0.86a1.8,1.8 0 0 0 0.26,0.81a0.72,0.72 0 0 0 0.61,0.34zm0,-6.37a0.6,0.6 0 0 0 0.48,-0.23a1.65,1.65 0 0 0 0.28,-0.69a5.93,5.93 0 0 0 0.09,-1.13a2.47,2.47 0 0 0 -0.21,-1.11a0.67,0.67 0 0 0 -0.64,-0.4a0.71,0.71 0 0 0 -0.65,0.4a2.29,2.29 0 0 0 -0.23,1.09a5.3,5.3 0 0 0 0.1,1.14a1.57,1.57 0 0 0 0.29,0.7a0.65,0.65 0 0 0 0.49,0.23z"/>
   <ellipse id="svg_192" opacity="0.25" ry="2.86" rx="23.2" cy="284.86" cx="370.97"/>
  </g>
  <g id="freepik--t-shirt-5--inject-58">
   <polygon id="svg_193" fill="#fff" points="277.03 227.59 265.45 218.08 260.85 217.39 250.34 217.46 245.22 218.08 233.64 227.59 237.27 232.78 244.36 230.87 242.98 259.12 267.7 259.12 266.31 230.87 273.4 232.78 277.03 227.59"/>
   <path id="svg_194" fill="#263238" d="m267.7,259.62l-24.7,0a0.51,0.51 0 0 1 -0.37,-0.15a0.5,0.5 0 0 1 -0.13,-0.37l1.35,-27.56l-6.43,1.72a0.48,0.48 0 0 1 -0.54,-0.2l-3.63,-5.18a0.51,0.51 0 0 1 0.09,-0.68l11.59,-9.51a0.57,0.57 0 0 1 0.25,-0.11l5.12,-0.61l10.56,-0.08l4.69,0.7a0.51,0.51 0 0 1 0.24,0.1l11.58,9.51a0.51,0.51 0 0 1 0.09,0.68l-3.63,5.18a0.49,0.49 0 0 1 -0.54,0.2l-6.42,-1.72l1.35,27.56a0.55,0.55 0 0 1 -0.14,0.37a0.49,0.49 0 0 1 -0.38,0.15zm-24.2,-1l23.67,0l-1.35,-27.72a0.49,0.49 0 0 1 0.18,-0.41a0.52,0.52 0 0 1 0.45,-0.1l6.75,1.81l3.16,-4.52l-11.12,-9.13l-4.47,-0.67l-10.43,0.08l-4.91,0.6l-11.11,9.12l3.16,4.52l6.75,-1.81a0.51,0.51 0 0 1 0.63,0.51l-1.36,27.72z"/>
   <path id="svg_195" fill="#263238" d="m250.34,217.46l-0.67,0.1a5.69,5.69 0 0 0 11.35,-0.14l-0.17,0l-10.51,0.04z"/>
   <path id="svg_196" fill="#263238" d="m255.34,223.28a6.22,6.22 0 0 1 -6.17,-5.67a0.5,0.5 0 0 1 0.42,-0.54l0.68,-0.1l0.07,0l10.5,-0.07l0.27,0a0.49,0.49 0 0 1 0.4,0.52a6.19,6.19 0 0 1 -6.17,5.86zm-5.12,-5.28a5.19,5.19 0 0 0 10.24,-0.11l-10.24,0.11z"/>
   <path id="svg_197" fill="#fff" d="m250.62,217.46a4.76,4.76 0 0 0 9.45,-0.07l-9.45,0.07z"/>
   <path id="svg_198" fill="#263238" d="m255.34,222.08a5.43,5.43 0 0 1 -5.21,-4.52a0.49,0.49 0 0 1 0.48,-0.6l9.45,-0.07l0,0a0.53,0.53 0 0 1 0.38,0.18a0.56,0.56 0 0 1 0.11,0.41a5.43,5.43 0 0 1 -5.21,4.6zm-4.08,-4.08a4.22,4.22 0 0 0 8.17,-0.06l-8.17,0.06z"/>
   <polygon id="svg_199" fill="#263238" points="237.27 232.78 239.18 232.26 235.15 226.35 233.64 227.59 237.27 232.78"/>
   <path id="svg_200" fill="#263238" d="m237.27,233.28a0.5,0.5 0 0 1 -0.41,-0.22l-3.63,-5.18a0.51,0.51 0 0 1 0.09,-0.68l1.51,-1.23a0.5,0.5 0 0 1 0.39,-0.11a0.54,0.54 0 0 1 0.34,0.21l4,5.91a0.54,0.54 0 0 1 0.06,0.46a0.5,0.5 0 0 1 -0.34,0.31l-1.91,0.51l-0.1,0.02zm-3,-5.6l3.16,4.52l0.89,-0.24l-3.32,-4.87l-0.73,0.59z"/>
   <polygon id="svg_201" fill="#263238" points="273.4 232.78 271.5 232.26 275.53 226.35 277.03 227.59 273.4 232.78"/>
   <path id="svg_202" fill="#263238" d="m273.4,233.28l-0.13,0l-1.9,-0.51a0.48,0.48 0 0 1 -0.34,-0.31a0.5,0.5 0 0 1 0.05,-0.46l4,-5.91a0.51,0.51 0 0 1 0.34,-0.21a0.5,0.5 0 0 1 0.39,0.11l1.5,1.23a0.51,0.51 0 0 1 0.09,0.68l-3.63,5.18a0.49,0.49 0 0 1 -0.37,0.2zm-1.09,-1.28l0.89,0.24l3.16,-4.52l-0.73,-0.59l-3.32,4.87z"/>
   <path id="svg_203" fill="#263238" d="m252.44,242.5l3,-11.57l-3.75,0l0,-2.15l6.51,0l0,1.94l-3,11.78l-2.76,0z"/>
   <ellipse id="svg_204" opacity="0.25" ry="2.86" rx="23.2" cy="284.86" cx="255.55"/>
  </g>
  <g id="freepik--t-shirt-4--inject-58">
   <polygon id="svg_205" fill="#fff" points="169.61 227.59 158.02 218.08 153.42 217.39 142.91 217.46 137.79 218.08 126.21 227.59 129.84 232.78 136.93 230.87 135.55 259.12 160.27 259.12 158.89 230.87 165.97 232.78 169.61 227.59"/>
   <path id="svg_206" fill="#263238" d="m160.27,259.62l-24.72,0a0.51,0.51 0 0 1 -0.37,-0.15a0.5,0.5 0 0 1 -0.13,-0.37l1.35,-27.56l-6.4,1.72a0.48,0.48 0 0 1 -0.54,-0.2l-3.63,-5.18a0.51,0.51 0 0 1 0.09,-0.68l11.59,-9.51a0.57,0.57 0 0 1 0.25,-0.11l5.12,-0.61l10.56,-0.08l4.69,0.7a0.51,0.51 0 0 1 0.24,0.1l11.58,9.51a0.51,0.51 0 0 1 0.1,0.68l-3.64,5.18a0.47,0.47 0 0 1 -0.53,0.2l-6.43,-1.72l1.35,27.56a0.47,0.47 0 0 1 -0.14,0.37a0.48,0.48 0 0 1 -0.39,0.15zm-24.2,-1l23.67,0l-1.35,-27.72a0.5,0.5 0 0 1 0.63,-0.51l6.75,1.81l3.16,-4.52l-11.12,-9.13l-4.47,-0.67l-10.43,0.08l-4.91,0.6l-11.11,9.12l3.16,4.52l6.75,-1.81a0.51,0.51 0 0 1 0.63,0.51l-1.36,27.72z"/>
   <path id="svg_207" fill="#263238" d="m142.91,217.46l-0.67,0.1a5.69,5.69 0 0 0 11.35,-0.14l-0.17,0l-10.51,0.04z"/>
   <path id="svg_208" fill="#263238" d="m147.91,223.28a6.23,6.23 0 0 1 -6.17,-5.67a0.5,0.5 0 0 1 0.42,-0.54l0.68,-0.1l0.07,0l10.5,-0.07l0.27,0a0.51,0.51 0 0 1 0.41,0.52a6.21,6.21 0 0 1 -6.18,5.86zm-5.11,-5.28a5.19,5.19 0 0 0 10.24,-0.11l-10.24,0.11z"/>
   <path id="svg_209" fill="#fff" d="m143.19,217.46a4.76,4.76 0 0 0 9.45,-0.07l-9.45,0.07z"/>
   <path id="svg_210" fill="#263238" d="m147.91,222.08a5.43,5.43 0 0 1 -5.21,-4.52a0.53,0.53 0 0 1 0.1,-0.42a0.53,0.53 0 0 1 0.39,-0.18l9.44,-0.07l0,0a0.53,0.53 0 0 1 0.38,0.18a0.52,0.52 0 0 1 0.11,0.41a5.43,5.43 0 0 1 -5.21,4.6zm-4.08,-4.08a4.22,4.22 0 0 0 8.17,-0.06l-8.17,0.06z"/>
   <polygon id="svg_211" fill="#263238" points="129.84 232.78 131.75 232.26 127.72 226.35 126.21 227.59 129.84 232.78"/>
   <path id="svg_212" fill="#263238" d="m129.84,233.28a0.5,0.5 0 0 1 -0.41,-0.22l-3.63,-5.18a0.51,0.51 0 0 1 0.09,-0.68l1.51,-1.2a0.5,0.5 0 0 1 0.39,-0.11a0.51,0.51 0 0 1 0.34,0.21l4,5.91a0.5,0.5 0 0 1 -0.28,0.77l-1.91,0.51l-0.1,-0.01zm-3,-5.6l3.16,4.52l0.89,-0.24l-3.33,-4.87l-0.72,0.59z"/>
   <polygon id="svg_213" fill="#263238" points="165.97 232.78 164.07 232.26 168.1 226.35 169.61 227.59 165.97 232.78"/>
   <path id="svg_214" fill="#263238" d="m166,233.28l-0.13,0l-1.91,-0.51a0.48,0.48 0 0 1 -0.34,-0.31a0.5,0.5 0 0 1 0.05,-0.46l4,-5.91a0.51,0.51 0 0 1 0.34,-0.21a0.5,0.5 0 0 1 0.39,0.11l1.5,1.23a0.51,0.51 0 0 1 0.1,0.68l-3.64,5.18a0.47,0.47 0 0 1 -0.36,0.2zm-1.1,-1.32l0.89,0.24l3.16,-4.52l-0.72,-0.59l-3.33,4.87z"/>
   <path id="svg_215" fill="#263238" d="m148.7,242.71a3.74,3.74 0 0 1 -2.18,-0.59a3.4,3.4 0 0 1 -1.22,-1.6a6.45,6.45 0 0 1 -0.39,-2.32l0,-5a8.34,8.34 0 0 1 0.31,-2.39a3.1,3.1 0 0 1 1.13,-1.65a3.89,3.89 0 0 1 2.34,-0.6a4.34,4.34 0 0 1 2.08,0.41a2.26,2.26 0 0 1 1.08,1.18a5,5 0 0 1 0.33,1.93a0.53,0.53 0 0 0 0,0.13l0,0.11l-2.66,0a4.66,4.66 0 0 0 -0.12,-1.23c-0.09,-0.26 -0.32,-0.4 -0.71,-0.4a0.7,0.7 0 0 0 -0.58,0.24a1.62,1.62 0 0 0 -0.26,0.83a14.33,14.33 0 0 0 -0.07,1.66l0,1.22a1.31,1.31 0 0 1 0.66,-0.55a2.78,2.78 0 0 1 1,-0.21a2.57,2.57 0 0 1 1.74,0.49a3,3 0 0 1 0.94,1.43a6.77,6.77 0 0 1 0.29,2a8.75,8.75 0 0 1 -0.34,2.53a3.33,3.33 0 0 1 -1.07,1.77a3.77,3.77 0 0 1 -2.3,0.61zm0,-2.09a0.62,0.62 0 0 0 0.56,-0.26a1.8,1.8 0 0 0 0.24,-0.78a11.45,11.45 0 0 0 0.06,-1.28c0,-0.45 0,-0.84 0,-1.17a1.71,1.71 0 0 0 -0.23,-0.77a0.68,0.68 0 0 0 -0.63,-0.28a1.09,1.09 0 0 0 -0.39,0.08a1.21,1.21 0 0 0 -0.32,0.22a0.85,0.85 0 0 0 -0.2,0.24l0,2.24a4.76,4.76 0 0 0 0.07,0.86a1.43,1.43 0 0 0 0.29,0.66a0.75,0.75 0 0 0 0.59,0.24l-0.04,0z"/>
   <ellipse id="svg_216" opacity="0.25" ry="2.86" rx="23.2" cy="284.86" cx="147.98"/>
  </g>
  <g id="freepik--t-shirt-3--inject-58">
   <polygon id="svg_217" fill="#fff" points="380.79 151.46 369.21 141.95 364.6 141.26 354.1 141.33 348.98 141.95 337.4 151.46 341.03 156.65 348.12 154.75 346.73 182.99 371.45 182.99 370.07 154.75 377.16 156.65 380.79 151.46"/>
   <path id="svg_218" fill="#263238" d="m371.46,183.49l-24.73,0a0.49,0.49 0 0 1 -0.36,-0.15a0.55,0.55 0 0 1 -0.14,-0.37l1.35,-27.56l-6.42,1.72a0.48,0.48 0 0 1 -0.54,-0.2l-3.62,-5.18a0.51,0.51 0 0 1 0.09,-0.68l11.58,-9.5a0.46,0.46 0 0 1 0.26,-0.11l5.12,-0.62l10.56,-0.08l4.68,0.7a0.47,0.47 0 0 1 0.25,0.11l11.58,9.5a0.51,0.51 0 0 1 0.09,0.68l-3.63,5.18a0.48,0.48 0 0 1 -0.54,0.2l-6.42,-1.72l1.38,27.59a0.5,0.5 0 0 1 -0.13,0.37a0.51,0.51 0 0 1 -0.41,0.12zm-24.2,-1l23.67,0l-1.36,-27.72a0.51,0.51 0 0 1 0.63,-0.51l6.75,1.81l3.17,-4.52l-11.12,-9.12l-4.47,-0.68l-10.43,0.08l-4.92,0.6l-11.11,9.12l3.17,4.52l6.75,-1.81a0.51,0.51 0 0 1 0.44,0.1a0.49,0.49 0 0 1 0.18,0.41l-1.35,27.72z"/>
   <path id="svg_219" fill="#263238" d="m354.1,141.33l-0.68,0.11a5.69,5.69 0 0 0 11.35,-0.15l-0.17,0l-10.5,0.04z"/>
   <path id="svg_220" fill="#263238" d="m359.09,147.15a6.23,6.23 0 0 1 -6.17,-5.67a0.51,0.51 0 0 1 0.43,-0.54l0.67,-0.1l0.07,0l10.51,-0.07l0.27,0a0.5,0.5 0 0 1 0.4,0.52a6.2,6.2 0 0 1 -6.18,5.86zm-5.09,-5.29a5.19,5.19 0 0 0 10.24,-0.11l-10.24,0.11z"/>
   <path id="svg_221" fill="#fff" d="m354.38,141.33a4.76,4.76 0 0 0 9.44,-0.06l-9.44,0.06z"/>
   <path id="svg_222" fill="#263238" d="m359.09,146a5.44,5.44 0 0 1 -5.21,-4.52a0.53,0.53 0 0 1 0.12,-0.48a0.49,0.49 0 0 1 0.38,-0.18l9.45,-0.06l0,0a0.52,0.52 0 0 1 0.39,0.17a0.51,0.51 0 0 1 0.1,0.41a5.41,5.41 0 0 1 -5.23,4.66zm-4.09,-4.17a4.22,4.22 0 0 0 8.17,-0.06l-8.17,0.06z"/>
   <polygon id="svg_223" fill="#263238" points="341.03 156.65 342.94 156.13 338.9 150.22 337.4 151.46 341.03 156.65"/>
   <path id="svg_224" fill="#263238" d="m341,157.15a0.49,0.49 0 0 1 -0.41,-0.22l-3.59,-5.18a0.51,0.51 0 0 1 0.09,-0.68l1.5,-1.23a0.5,0.5 0 0 1 0.39,-0.11a0.49,0.49 0 0 1 0.34,0.21l4,5.91a0.5,0.5 0 0 1 0,0.46a0.49,0.49 0 0 1 -0.33,0.31l-1.91,0.51l-0.08,0.02zm-3,-5.6l3.17,4.52l0.88,-0.24l-3.25,-4.83l-0.8,0.55z"/>
   <polygon id="svg_225" fill="#263238" points="377.16 156.65 375.25 156.13 379.29 150.22 380.79 151.46 377.16 156.65"/>
   <path id="svg_226" fill="#263238" d="m377.16,157.15l-0.13,0l-1.91,-0.51a0.52,0.52 0 0 1 -0.34,-0.31a0.54,0.54 0 0 1 0.06,-0.46l4,-5.91a0.54,0.54 0 0 1 0.34,-0.21a0.48,0.48 0 0 1 0.39,0.11l1.51,1.23a0.51,0.51 0 0 1 0.09,0.68l-3.63,5.18a0.49,0.49 0 0 1 -0.38,0.2zm-1.1,-1.32l0.89,0.24l3.17,-4.52l-0.73,-0.59l-3.33,4.87z"/>
   <path id="svg_227" fill="#263238" d="m354.23,166.75l0,-10.93a4.09,4.09 0 0 1 -0.42,0.2l-0.5,0.22l-0.51,0.21c-0.17,0.07 -0.32,0.13 -0.45,0.2l0,-2.1l0.52,-0.28l0.73,-0.4a7.49,7.49 0 0 0 0.73,-0.45a3.28,3.28 0 0 0 0.51,-0.39l2.22,0l0,13.72l-2.83,0z"/>
   <path id="svg_228" fill="#263238" d="m360.82,166.75l0,-10.93a2.75,2.75 0 0 1 -0.42,0.2l-0.5,0.22l-0.51,0.21l-0.45,0.2l0,-2.1l0.53,-0.28l0.72,-0.4a6.45,6.45 0 0 0 0.73,-0.45a3.28,3.28 0 0 0 0.51,-0.39l2.22,0l0,13.72l-2.83,0z"/>
   <ellipse id="svg_229" opacity="0.25" ry="2.86" rx="23.2" cy="208.11" cx="359.79"/>
  </g>
  <g id="freepik--t-shirt-2--inject-58">
   <polygon id="svg_230" fill="#fff" points="277.03 151.46 265.45 141.95 260.85 141.26 250.34 141.33 245.22 141.95 233.64 151.46 237.27 156.65 244.36 154.75 242.98 182.99 267.7 182.99 266.31 154.75 273.4 156.65 277.03 151.46"/>
   <path id="svg_231" fill="#263238" d="m267.7,183.49l-24.7,0a0.51,0.51 0 0 1 -0.37,-0.15a0.5,0.5 0 0 1 -0.13,-0.37l1.35,-27.56l-6.43,1.72a0.48,0.48 0 0 1 -0.54,-0.2l-3.63,-5.18a0.51,0.51 0 0 1 0.09,-0.68l11.59,-9.5a0.41,0.41 0 0 1 0.25,-0.11l5.12,-0.62l10.56,-0.08l4.69,0.7a0.44,0.44 0 0 1 0.24,0.11l11.58,9.5a0.51,0.51 0 0 1 0.09,0.68l-3.63,5.18a0.48,0.48 0 0 1 -0.54,0.2l-6.42,-1.72l1.33,27.59a0.55,0.55 0 0 1 -0.14,0.37a0.49,0.49 0 0 1 -0.36,0.12zm-24.2,-1l23.67,0l-1.35,-27.72a0.49,0.49 0 0 1 0.18,-0.41a0.52,0.52 0 0 1 0.45,-0.1l6.75,1.81l3.16,-4.52l-11.12,-9.12l-4.47,-0.68l-10.43,0.08l-4.91,0.6l-11.11,9.12l3.16,4.52l6.75,-1.81a0.5,0.5 0 0 1 0.44,0.1a0.48,0.48 0 0 1 0.19,0.41l-1.36,27.72z"/>
   <path id="svg_232" fill="#263238" d="m250.34,141.33l-0.67,0.11a5.69,5.69 0 0 0 11.35,-0.15l-0.17,0l-10.51,0.04z"/>
   <path id="svg_233" fill="#263238" d="m255.34,147.15a6.22,6.22 0 0 1 -6.17,-5.67a0.5,0.5 0 0 1 0.42,-0.54l0.68,-0.1l0.07,0l10.5,-0.07l0.27,0a0.49,0.49 0 0 1 0.4,0.52a6.19,6.19 0 0 1 -6.17,5.86zm-5.12,-5.29a5.19,5.19 0 0 0 10.24,-0.11l-10.24,0.11z"/>
   <path id="svg_234" fill="#fff" d="m250.62,141.33a4.76,4.76 0 0 0 9.45,-0.06l-9.45,0.06z"/>
   <path id="svg_235" fill="#263238" d="m255.34,146a5.42,5.42 0 0 1 -5.21,-4.52a0.49,0.49 0 0 1 0.48,-0.6l9.45,-0.06l0,0a0.52,0.52 0 0 1 0.38,0.17a0.56,0.56 0 0 1 0.11,0.41a5.42,5.42 0 0 1 -5.21,4.6zm-4.08,-4.12a4.22,4.22 0 0 0 8.17,-0.06l-8.17,0.06z"/>
   <polygon id="svg_236" fill="#263238" points="237.27 156.65 239.18 156.13 235.15 150.22 233.64 151.46 237.27 156.65"/>
   <path id="svg_237" fill="#263238" d="m237.27,157.15a0.5,0.5 0 0 1 -0.41,-0.22l-3.63,-5.18a0.51,0.51 0 0 1 0.09,-0.68l1.51,-1.23a0.5,0.5 0 0 1 0.39,-0.11a0.54,0.54 0 0 1 0.34,0.21l4,5.91a0.54,0.54 0 0 1 0.06,0.46a0.5,0.5 0 0 1 -0.34,0.31l-1.91,0.51l-0.1,0.02zm-3,-5.6l3.16,4.52l0.89,-0.24l-3.32,-4.83l-0.73,0.55z"/>
   <polygon id="svg_238" fill="#263238" points="273.4 156.65 271.5 156.13 275.53 150.22 277.03 151.46 273.4 156.65"/>
   <path id="svg_239" fill="#263238" d="m273.4,157.15l-0.13,0l-1.9,-0.51a0.48,0.48 0 0 1 -0.34,-0.31a0.5,0.5 0 0 1 0.05,-0.46l4,-5.91a0.51,0.51 0 0 1 0.34,-0.21a0.5,0.5 0 0 1 0.39,0.11l1.5,1.23a0.51,0.51 0 0 1 0.09,0.68l-3.63,5.18a0.49,0.49 0 0 1 -0.37,0.2zm-1.09,-1.32l0.89,0.24l3.16,-4.52l-0.73,-0.59l-3.32,4.87z"/>
   <path id="svg_240" fill="#263238" d="m249.49,166.75l0,-10.93a3.45,3.45 0 0 1 -0.43,0.2l-0.5,0.22l-0.51,0.21c-0.16,0.07 -0.31,0.13 -0.44,0.2l0,-2.1l0.52,-0.28l0.73,-0.4a7.49,7.49 0 0 0 0.73,-0.45a4.68,4.68 0 0 0 0.51,-0.39l2.22,0l0,13.72l-2.83,0z"/>
   <path id="svg_241" fill="#263238" d="m258.49,167a4,4 0 0 1 -2.07,-0.5a3.26,3.26 0 0 1 -1.26,-1.39a4.69,4.69 0 0 1 -0.42,-2.05l0,-6.22a5.08,5.08 0 0 1 0.4,-2.1a3,3 0 0 1 1.23,-1.42a4,4 0 0 1 2.12,-0.51a3.91,3.91 0 0 1 2.1,0.51a3.1,3.1 0 0 1 1.23,1.42a5.25,5.25 0 0 1 0.39,2.1l0,6.22a4.78,4.78 0 0 1 -0.42,2.05a3.23,3.23 0 0 1 -1.25,1.39a4,4 0 0 1 -2.05,0.5zm0,-2.53a0.66,0.66 0 0 0 0.58,-0.26a1.4,1.4 0 0 0 0.22,-0.61a4.62,4.62 0 0 0 0,-0.6l0,-6.09c0,-0.19 0,-0.41 0,-0.65a1.35,1.35 0 0 0 -0.21,-0.64a0.65,0.65 0 0 0 -0.6,-0.28a0.66,0.66 0 0 0 -0.61,0.28a1.35,1.35 0 0 0 -0.21,0.64c0,0.24 0,0.46 0,0.65l0,6.09a4.83,4.83 0 0 0 0.05,0.6a1.41,1.41 0 0 0 0.23,0.61a0.65,0.65 0 0 0 0.55,0.27l0,-0.01z"/>
   <ellipse id="svg_242" opacity="0.25" ry="2.86" rx="23.2" cy="208.11" cx="252.96"/>
  </g>
  <g id="freepik--t-shirt-1--inject-58">
   <polygon id="svg_243" fill="#fff" points="172.66 151.46 161.08 141.95 156.47 141.26 145.97 141.33 140.85 141.95 129.27 151.46 132.9 156.65 139.99 154.75 138.6 182.99 163.33 182.99 161.94 154.75 169.03 156.65 172.66 151.46"/>
   <path id="svg_244" fill="#263238" d="m163.33,183.49l-24.73,0a0.51,0.51 0 0 1 -0.36,-0.15a0.5,0.5 0 0 1 -0.13,-0.37l1.35,-27.56l-6.46,1.72a0.48,0.48 0 0 1 -0.54,-0.2l-3.63,-5.18a0.51,0.51 0 0 1 0.09,-0.68l11.58,-9.5a0.46,0.46 0 0 1 0.26,-0.11l5.12,-0.62l10.56,-0.08l4.69,0.7a0.48,0.48 0 0 1 0.24,0.11l11.58,9.5a0.51,0.51 0 0 1 0.09,0.68l-3.63,5.18a0.48,0.48 0 0 1 -0.54,0.2l-6.42,-1.72l1.38,27.59a0.55,0.55 0 0 1 -0.14,0.37a0.49,0.49 0 0 1 -0.36,0.12zm-24.2,-1l23.67,0l-1.35,-27.72a0.49,0.49 0 0 1 0.18,-0.41a0.47,0.47 0 0 1 0.44,-0.1l6.75,1.81l3.17,-4.52l-11.12,-9.12l-4.47,-0.68l-10.43,0.08l-4.91,0.6l-11.12,9.12l3.17,4.52l6.75,-1.81a0.5,0.5 0 0 1 0.44,0.1a0.48,0.48 0 0 1 0.19,0.41l-1.36,27.72z"/>
   <path id="svg_245" fill="#263238" d="m146,141.33l-0.67,0.11a5.69,5.69 0 0 0 11.35,-0.15l-0.18,0l-10.5,0.04z"/>
   <path id="svg_246" fill="#263238" d="m151,147.15a6.22,6.22 0 0 1 -6.17,-5.67a0.49,0.49 0 0 1 0.42,-0.54l0.67,-0.1l0.08,0l10.5,-0.07l0.27,0a0.49,0.49 0 0 1 0.4,0.52a6.19,6.19 0 0 1 -6.17,5.86zm-5.12,-5.29a5.19,5.19 0 0 0 10.24,-0.11l-10.24,0.11z"/>
   <path id="svg_247" fill="#fff" d="m146.25,141.33a4.76,4.76 0 0 0 9.44,-0.06l-9.44,0.06z"/>
   <path id="svg_248" fill="#263238" d="m151,146a5.42,5.42 0 0 1 -5.21,-4.52a0.49,0.49 0 0 1 0.48,-0.6l9.45,-0.06a0.48,0.48 0 0 1 0.39,0.17a0.56,0.56 0 0 1 0.11,0.41a5.42,5.42 0 0 1 -5.22,4.6zm-4.08,-4.12a4.22,4.22 0 0 0 8.17,-0.06l-8.17,0.06z"/>
   <polygon id="svg_249" fill="#263238" points="132.9 156.65 134.81 156.13 130.77 150.22 129.27 151.46 132.9 156.65"/>
   <path id="svg_250" fill="#263238" d="m132.9,157.15a0.5,0.5 0 0 1 -0.41,-0.22l-3.63,-5.18a0.51,0.51 0 0 1 0.09,-0.68l1.51,-1.23a0.5,0.5 0 0 1 0.39,-0.11a0.54,0.54 0 0 1 0.34,0.21l4,5.91a0.54,0.54 0 0 1 0.06,0.46a0.52,0.52 0 0 1 -0.34,0.31l-1.91,0.51l-0.1,0.02zm-3,-5.6l3.17,4.52l0.89,-0.24l-3.29,-4.83l-0.77,0.55z"/>
   <polygon id="svg_251" fill="#263238" points="169.03 156.65 167.13 156.13 171.16 150.22 172.66 151.46 169.03 156.65"/>
   <path id="svg_252" fill="#263238" d="m169,157.15l-0.13,0l-1.9,-0.51a0.48,0.48 0 0 1 -0.34,-0.31a0.5,0.5 0 0 1 0.05,-0.46l4,-5.91a0.49,0.49 0 0 1 0.34,-0.21a0.5,0.5 0 0 1 0.39,0.11l1.5,1.23a0.51,0.51 0 0 1 0.09,0.68l-3.63,5.18a0.49,0.49 0 0 1 -0.37,0.2zm-1.09,-1.32l0.88,0.24l3.17,-4.52l-0.73,-0.59l-3.32,4.87z"/>
   <path id="svg_253" fill="#263238" d="m150.91,167a4.45,4.45 0 0 1 -2.08,-0.4a2.32,2.32 0 0 1 -1.09,-1.2a5.21,5.21 0 0 1 -0.32,-1.94l0,-0.22l2.64,0a3.69,3.69 0 0 0 0.15,1.23c0.09,0.27 0.33,0.4 0.72,0.4a0.67,0.67 0 0 0 0.57,-0.24a1.6,1.6 0 0 0 0.25,-0.84q0.06,-0.6 0.06,-1.65l0,-1.22a1.35,1.35 0 0 1 -0.67,0.54a2.93,2.93 0 0 1 -1,0.22a2.55,2.55 0 0 1 -1.75,-0.54a3,3 0 0 1 -0.94,-1.51a6.79,6.79 0 0 1 -0.29,-2.06a7.7,7.7 0 0 1 0.36,-2.49a3.12,3.12 0 0 1 1.2,-1.61a3.74,3.74 0 0 1 2.2,-0.58a4,4 0 0 1 2.19,0.54a3.16,3.16 0 0 1 1.21,1.52a6.35,6.35 0 0 1 0.38,2.29l0,5.12a8.71,8.71 0 0 1 -0.31,2.39a3.1,3.1 0 0 1 -1.13,1.65a3.89,3.89 0 0 1 -2.35,0.6zm0,-7.49a0.81,0.81 0 0 0 0.55,-0.18a2.51,2.51 0 0 0 0.32,-0.36l0,-2.23a4.83,4.83 0 0 0 -0.07,-0.88a1.43,1.43 0 0 0 -0.25,-0.64a0.7,0.7 0 0 0 -0.58,-0.25a0.64,0.64 0 0 0 -0.56,0.27a1.6,1.6 0 0 0 -0.24,0.78a11.25,11.25 0 0 0 -0.06,1.27c0,0.45 0,0.83 0,1.17a1.64,1.64 0 0 0 0.23,0.78a0.69,0.69 0 0 0 0.69,0.22l-0.03,0.05z"/>
   <ellipse id="svg_254" opacity="0.25" ry="2.86" rx="23.2" cy="208.11" cx="151.66"/>
  </g>
  <g id="freepik--Shield--inject-58">
   <path id="svg_255" fill="#fff" d="m288.41,50.87l-0.78,4a72,72 0 0 1 -2.05,8a70.66,70.66 0 0 1 -25.88,35.64l-4.13,3l-0.23,0.17l-0.23,-0.17l-4.14,-3a69.94,69.94 0 0 1 -6.11,-5a70.69,70.69 0 0 1 -17.86,-25.59c-0.68,-1.67 -1.3,-3.38 -1.86,-5.11a71.45,71.45 0 0 1 -2.05,-8l-0.78,-4l33.08,-14.38l33.02,14.44z"/>
   <path id="svg_256" fill="#263238" d="m255.34,102.17a0.55,0.55 0 0 1 -0.3,-0.09l-0.23,-0.18l-4.13,-3a71.07,71.07 0 0 1 -24.19,-30.81c-0.67,-1.65 -1.3,-3.38 -1.88,-5.14a72.63,72.63 0 0 1 -2.06,-8l-0.78,-4a0.49,0.49 0 0 1 0.29,-0.55l33.08,-14.4a0.47,0.47 0 0 1 0.4,0l33.07,14.38a0.48,0.48 0 0 1 0.29,0.55l-0.78,4a73.13,73.13 0 0 1 -2.06,8a70.69,70.69 0 0 1 -26.06,35.99l-4.35,3.16a0.55,0.55 0 0 1 -0.31,0.09zm-32.51,-51l0.7,3.59a70.54,70.54 0 0 0 2,7.9c0.56,1.74 1.18,3.45 1.84,5.08a70.71,70.71 0 0 0 17.83,25.44a67.67,67.67 0 0 0 6.06,4.93l4.08,2.94l4.07,-2.94a69.7,69.7 0 0 0 25.69,-35.42a71,71 0 0 0 2,-7.93l0.7,-3.59l-32.46,-14.17l-32.51,14.17z"/>
   <path id="svg_257" fill="#5B1CE3" d="m288.41,50.87l-0.78,4a72,72 0 0 1 -2.05,8l-30.24,-14.31l-30.25,14.25a71.45,71.45 0 0 1 -2.05,-8l-0.78,-4l33.08,-14.38l33.07,14.44z"/>
   <path id="svg_258" fill="#263238" d="m285.58,63.34a0.49,0.49 0 0 1 -0.21,0l-30,-14.19l-30,14.16a0.49,0.49 0 0 1 -0.41,0a0.55,0.55 0 0 1 -0.28,-0.3a72.63,72.63 0 0 1 -2.06,-8l-0.78,-4a0.49,0.49 0 0 1 0.29,-0.55l33.01,-14.46a0.47,0.47 0 0 1 0.4,0l33.07,14.38a0.48,0.48 0 0 1 0.29,0.55l-0.78,4a73.13,73.13 0 0 1 -2.06,8a0.55,0.55 0 0 1 -0.28,0.3a0.45,0.45 0 0 1 -0.2,0.11zm-30.24,-15.28a0.5,0.5 0 0 1 0.21,0l29.72,14a70.77,70.77 0 0 0 1.87,-7.39l0.7,-3.59l-32.5,-14.08l-32.51,14.17l0.7,3.59a72.75,72.75 0 0 0 1.86,7.36l29.74,-14a0.5,0.5 0 0 1 0.21,-0.06z"/>
   <path id="svg_259" fill="#5B1CE3" d="m273,69.79l-28.14,23.76a70.69,70.69 0 0 1 -17.86,-25.63l41.42,-17.37l-28.53,26.2l33.11,-6.96z"/>
   <path id="svg_260" fill="#263238" d="m244.86,94.05a0.5,0.5 0 0 1 -0.34,-0.13a71.52,71.52 0 0 1 -18,-25.81a0.49,0.49 0 0 1 0.27,-0.65l41.42,-17.37a0.5,0.5 0 0 1 0.53,0.83l-27.19,25l31.4,-6.59a0.52,0.52 0 0 1 0.55,0.27a0.51,0.51 0 0 1 -0.13,0.61l-28.19,23.73a0.54,0.54 0 0 1 -0.32,0.11zm-17.26,-25.86a70.73,70.73 0 0 0 17.27,24.7l26.31,-22.2l-31.24,6.55a0.5,0.5 0 0 1 -0.44,-0.85l26.42,-24.27l-38.32,16.07z"/>
   <path id="svg_261" fill="#263238" d="m255.34,99.05a0.55,0.55 0 0 1 -0.34,-0.05l-0.21,-0.16l-3.74,-2.7a64.56,64.56 0 0 1 -21.85,-27.92c-0.6,-1.49 -1.17,-3 -1.69,-4.65a65.6,65.6 0 0 1 -1.87,-7.26l-0.7,-3.6a0.48,0.48 0 0 1 0.29,-0.55l29.91,-13a0.47,0.47 0 0 1 0.4,0l29.9,13a0.48,0.48 0 0 1 0.29,0.55l-0.7,3.6a64.3,64.3 0 0 1 -25.45,39.79l-3.94,2.9a0.55,0.55 0 0 1 -0.3,0.05zm-29.34,-46.13l0.63,3.2a65.68,65.68 0 0 0 1.84,7.14c0.51,1.57 1.07,3.12 1.67,4.59a63.72,63.72 0 0 0 16.07,23a62.09,62.09 0 0 0 5.48,4.45l3.66,2.64l3.65,-2.65a63.83,63.83 0 0 0 23.22,-32a66.18,66.18 0 0 0 1.84,-7.17l0.62,-3.2l-29.34,-12.76l-29.34,12.76z"/>
  </g>
  <text xml:space="preserve" text-anchor="start" font-family="Noto Sans JP" font-size="24" id="svg_262" y="196.48604" x="170.54012" stroke-width="0" stroke="#000" fill="#000000"/>
  <text font-style="normal" font-weight="normal" transform="matrix(0.680893 0 0 0.681825 47.152 61.2235)" stroke="#000" xml:space="preserve" text-anchor="start" font-family="sans-serif" font-size="18" id="svg_263" y="201.0689" x="96.12598" stroke-width="0" fill="#202124">ANDERSSON</text>
  <text font-style="normal" font-weight="normal" transform="matrix(0.680893 0 0 0.681825 47.152 61.2235)" stroke="#000" xml:space="preserve" text-anchor="start" font-family="sans-serif" font-size="18" id="svg_275" y="201.13471" x="279.33097" stroke-width="0" fill="#202124">JUAN</text>
  <text font-style="normal" font-weight="normal" transform="matrix(0.680893 0 0 0.681825 47.152 61.2235)" stroke="#000" xml:space="preserve" text-anchor="start" font-family="sans-serif" font-size="18" id="svg_276" y="312.91726" x="101.50426" stroke-width="0" fill="#202124">SANTIAGO</text>
  <text font-style="normal" font-weight="normal" transform="matrix(0.680893 0 0 0.681825 47.152 61.2235)" stroke="#000" xml:space="preserve" text-anchor="start" font-family="sans-serif" font-size="18" id="svg_277" y="312.91726" x="282.50644" stroke-width="0" fill="#202124">JOSE</text>
  <text font-style="normal" font-weight="normal" transform="matrix(0.680893 0 0 0.681825 47.152 61.2235)" stroke="#000" xml:space="preserve" text-anchor="start" font-family="sans-serif" font-size="18" id="svg_278" y="313.71005" x="450.98245" stroke-width="0" fill="#202124">DAVID</text>
  <text font-style="normal" font-weight="normal" transform="matrix(0.680893 0 0 0.681825 47.152 61.2235)" stroke="#000" xml:space="preserve" text-anchor="start" font-family="sans-serif" font-size="18" id="svg_279" y="418.66751" x="46.06521" stroke-width="0" fill="#202124">NICOLÁS</text>
  <text font-style="normal" font-weight="normal" transform="matrix(0.680893 0 0 0.681825 47.152 61.2235)" stroke="#000" xml:space="preserve" text-anchor="start" font-family="sans-serif" font-size="18" id="svg_280" y="420.73588" x="177.7157" stroke-width="0" fill="#202124">JESÚS</text>
  <text style="cursor: move;" font-style="normal" font-weight="normal" transform="matrix(0.680893 0 0 0.681825 47.152 61.2235)" stroke="#000" xml:space="preserve" text-anchor="start" font-family="sans-serif" font-size="18" id="svg_281" y="419.94311" x="373.00753" stroke-width="0" fill="#202124">ANDRÉS</text>
  <text font-style="normal" font-weight="normal" transform="matrix(0.680893 0 0 0.681825 47.152 61.2235)" stroke="#000" xml:space="preserve" text-anchor="start" font-family="sans-serif" font-size="18" id="svg_282" y="419.94312" x="477.00441" stroke-width="0" fill="#202124">FRANCISCO</text>
  <text font-style="normal" font-weight="normal" transform="matrix(0.680893 0 0 0.681825 47.152 61.2235)" stroke="#000" xml:space="preserve" text-anchor="start" font-family="sans-serif" font-size="18" id="svg_283" y="490.50088" x="265.83518" stroke-width="0" fill="#202124">THOMAS</text>
  <text font-style="normal" font-weight="normal" transform="matrix(0.680893 0 0 0.681825 47.152 61.2235)" stroke="#000" xml:space="preserve" text-anchor="start" font-family="sans-serif" font-size="18" id="svg_285" y="201.9275" x="406.35004" stroke-width="0" fill="#202124">SEBASTIÁN</text>
 </g>
</svg>