<svg height="480pt" viewBox="0 -63 480 479" width="480pt" xmlns="http://www.w3.org/2000/svg"><path d="m8 .5h464c4.417969 0 8 3.582031 8 8v336c0 4.417969-3.582031 8-8 8h-464c-4.417969 0-8-3.582031-8-8v-336c0-4.417969 3.582031-8 8-8zm0 0" fill="#006837"/><path d="m96 296.5c-13.253906 0-24-10.746094-24-24s10.746094-24 24-24 24 10.746094 24 24-10.746094 24-24 24zm0-32c-4.417969 0-8 3.582031-8 8s3.582031 8 8 8 8-3.582031 8-8-3.582031-8-8-8zm0 0" fill="#ffcc5c"/><path d="m320 176.5c-13.253906 0-24-10.746094-24-24s10.746094-24 24-24 24 10.746094 24 24-10.746094 24-24 24zm0-32c-4.417969 0-8 3.582031-8 8s3.582031 8 8 8 8-3.582031 8-8-3.582031-8-8-8zm0 0" fill="#ffcc5c"/><path d="m111.3125 156.5 14.34375-14.34375c3.03125-3.140625 2.988281-8.128906-.097656-11.214844-3.085938-3.085937-8.074219-3.128906-11.214844-.097656l-14.34375 14.34375-14.34375-14.34375c-3.140625-3.03125-8.128906-2.988281-11.214844.097656-3.085937 3.085938-3.128906 8.074219-.097656 11.214844l14.34375 14.34375-14.34375 14.34375c-2.078125 2.007812-2.914062 4.984375-2.179688 7.78125.730469 2.796875 2.914063 4.980469 5.710938 5.710938 2.796875.734374 5.773438-.101563 7.78125-2.179688l14.34375-14.34375 14.34375 14.34375c3.140625 3.03125 8.128906 2.988281 11.214844-.097656 3.085937-3.085938 3.128906-8.074219.097656-11.214844zm0 0" fill="#3498db"/><path d="m391.3125 228.5 14.34375-14.34375c3.03125-3.140625 2.988281-8.128906-.097656-11.214844-3.085938-3.085937-8.074219-3.128906-11.214844-.097656l-14.34375 14.34375-14.34375-14.34375c-3.140625-3.03125-8.128906-2.988281-11.214844.097656-3.085937 3.085938-3.128906 8.074219-.097656 11.214844l14.34375 14.34375-14.34375 14.34375c-2.078125 2.007812-2.914062 4.984375-2.179688 7.78125.730469 2.796875 2.914063 4.980469 5.710938 5.710938 2.796875.734374 5.773438-.101563 7.78125-2.179688l14.34375-14.34375 14.34375 14.34375c3.140625 3.03125 8.128906 2.988281 11.214844-.097656 3.085937-3.085938 3.128906-8.074219.097656-11.214844zm0 0" fill="#3498db"/><path d="m276.449219 152.882812-32.800781-22.933593c-2.339844-1.703125-5.414063-2.011719-8.046876-.804688-2.628906 1.207031-4.402343 3.738281-4.636718 6.621094-.234375 2.886719 1.105468 5.671875 3.507812 7.285156l15.558594 10.898438c-96.839844 13.046875-128.015625 80.152343-129.335938 83.152343-1.707031 4.015626.121094 8.664063 4.109376 10.4375 3.988281 1.777344 8.667968.023438 10.507812-3.933593.289062-.664063 29.328125-63.105469 119.757812-74.152344l-12.671874 18.167969c-1.742188 2.335937-2.074219 5.4375-.867188 8.089844 1.207031 2.65625 3.761719 4.445312 6.667969 4.667968s5.707031-1.152344 7.304687-3.589844l22.945313-32.800781c2.53125-3.617187 1.652343-8.601562-1.960938-11.136719zm0 0" fill="#f15a24"/><path d="m456 16.5h-432c-4.417969 0-8 3.582031-8 8v304c0 4.417969 3.582031 8 8 8h432c4.417969 0 8-3.582031 8-8v-304c0-4.417969-3.582031-8-8-8zm-8 16v22.984375c-11.261719-2.929687-20.058594-11.722656-22.992188-22.984375zm-152 0v16h-112v-16zm-128 0v24c0 4.417969 3.582031 8 8 8h128c4.417969 0 8-3.582031 8-8v-24h24v56h-192v-56zm-136 0h22.992188c-2.933594 11.261719-11.730469 20.054688-22.992188 22.984375zm128.398438 288c4.105468-40.882812 38.511718-72.011719 79.601562-72.011719s75.496094 31.128907 79.601562 72.011719zm175.203124 0c-4.078124-49.773438-45.660156-88.089844-95.601562-88.089844s-91.523438 38.316406-95.601562 88.089844h-112.398438v-248.71875c20.101562-3.4375 35.84375-19.179688 39.28125-39.28125h56.71875v64c0 4.417969 3.582031 8 8 8h208c4.417969 0 8-3.582031 8-8v-64h56.71875c3.4375 20.101562 19.179688 35.84375 39.28125 39.28125v248.71875zm0 0" fill="#fff"/></svg>